<svg width="420" height="346" viewBox="0 0 420 346" fill="none" xmlns="http://www.w3.org/2000/svg">
<path d="M310.599 315.13H174.099C172.778 315.13 171.503 314.642 170.52 313.758C169.537 312.875 168.916 311.659 168.775 310.345L142.714 66.7121C142.634 65.9651 142.712 65.2097 142.943 64.4949C143.174 63.7802 143.553 63.122 144.056 62.5633C144.558 62.0046 145.172 61.5577 145.858 61.2519C146.544 60.9461 147.287 60.788 148.038 60.7881H284.538C285.859 60.7882 287.134 61.277 288.117 62.1603C289.1 63.0436 289.721 64.2592 289.862 65.5731L315.928 309.204C316.008 309.952 315.93 310.708 315.699 311.423C315.468 312.138 315.089 312.797 314.586 313.356C314.083 313.915 313.468 314.362 312.781 314.668C312.095 314.973 311.351 315.131 310.599 315.13Z" fill="#810A8B"/>
<path d="M302.264 299.308H188.064C186.917 299.308 185.809 298.884 184.956 298.117C184.102 297.35 183.562 296.294 183.44 295.153L158.955 75.4673C158.886 74.8186 158.954 74.1625 159.154 73.5417C159.355 72.9209 159.684 72.3493 160.12 71.864C160.556 71.3788 161.09 70.9907 161.686 70.7251C162.282 70.4595 162.927 70.3222 163.579 70.3223H277.779C278.927 70.3222 280.034 70.7465 280.887 71.5135C281.741 72.2806 282.281 73.3362 282.403 74.4773L306.888 294.163C306.958 294.812 306.89 295.468 306.689 296.089C306.488 296.71 306.159 297.281 305.723 297.767C305.287 298.252 304.754 298.64 304.158 298.906C303.562 299.171 302.917 299.308 302.264 299.308Z" fill="url(#paint0_linear_1906_430)"/>
<path d="M211.425 203.602C211.425 204.986 211.152 206.356 210.623 207.635C210.093 208.913 209.317 210.075 208.338 211.054C207.36 212.032 206.198 212.809 204.919 213.338C203.641 213.868 202.27 214.14 200.886 214.14C198.092 214.14 195.411 213.03 193.435 211.053C191.459 209.077 190.349 206.397 190.349 203.602C190.349 200.807 191.459 198.127 193.435 196.15C195.411 194.174 198.092 193.064 200.886 193.064C203.681 193.064 206.362 194.174 208.338 196.15C210.314 198.127 211.425 200.807 211.425 203.602Z" fill="#F37168"/>
<path d="M200.784 199.899C200.784 199.899 197.104 196.654 194.5 199.772C190.925 204.052 200.784 209.497 200.784 209.497C200.784 209.497 210.821 203.878 207.31 199.549C204.654 196.278 200.784 199.899 200.784 199.899Z" fill="white"/>
<path d="M269.13 203.602C269.13 206.673 267.91 209.618 265.738 211.789C263.567 213.961 260.622 215.181 257.551 215.181C254.48 215.181 251.535 213.961 249.364 211.789C247.193 209.618 245.973 206.673 245.973 203.602C245.973 200.531 247.193 197.587 249.364 195.415C251.535 193.244 254.48 192.024 257.551 192.024C260.622 192.024 263.566 193.244 265.738 195.415C267.909 197.586 269.129 200.531 269.13 203.602Z" fill="#430A56"/>
<path d="M257.293 195.975C258.793 195.768 260.093 199.496 259.985 200.686C259.877 201.876 262.785 200.531 264.179 201.566C265.573 202.601 265.163 207.986 264.179 208.348C263.195 208.71 259.228 208.762 257.95 208.089C257.305 207.701 256.561 207.511 255.81 207.542L255.152 201.909C255.772 201.683 256.342 201.338 256.829 200.892C257.708 200.114 257.293 195.975 257.293 195.975ZM250.614 209.175C250.977 209.486 255.066 210.469 255.273 208.398C255.48 206.327 254.445 201.926 254.445 201.926C254.445 201.926 251.599 201.782 250.614 202.286C250.235 202.484 250.252 208.867 250.615 209.178L250.614 209.175Z" fill="white"/>
<path d="M229.939 199.818H216.218C214.866 199.818 213.77 200.914 213.77 202.266V202.267C213.77 203.619 214.866 204.715 216.218 204.715H229.939C231.291 204.715 232.387 203.619 232.387 202.267V202.266C232.387 200.914 231.291 199.818 229.939 199.818Z" fill="#810A8B"/>
<path d="M229.939 206.164H216.218C214.866 206.164 213.77 207.26 213.77 208.612V208.613C213.77 209.965 214.866 211.061 216.218 211.061H229.939C231.291 211.061 232.387 209.965 232.387 208.613V208.612C232.387 207.26 231.291 206.164 229.939 206.164Z" fill="#810A8B"/>
<path d="M289.361 199.818H275.64C274.288 199.818 273.192 200.914 273.192 202.266V202.267C273.192 203.619 274.288 204.715 275.64 204.715H289.361C290.713 204.715 291.809 203.619 291.809 202.267V202.266C291.809 200.914 290.713 199.818 289.361 199.818Z" fill="#810A8B"/>
<path d="M289.361 206.164H275.64C274.288 206.164 273.192 207.26 273.192 208.612V208.613C273.192 209.965 274.288 211.061 275.64 211.061H289.361C290.713 211.061 291.809 209.965 291.809 208.613V208.612C291.809 207.26 290.713 206.164 289.361 206.164Z" fill="#810A8B"/>
<path d="M288.493 239.934H199.053C198.523 239.932 198.015 239.721 197.64 239.346C197.266 238.972 197.055 238.464 197.053 237.934C197.055 237.404 197.266 236.897 197.64 236.522C198.015 236.147 198.523 235.936 199.053 235.934H288.493C289.023 235.936 289.53 236.147 289.905 236.522C290.279 236.897 290.491 237.404 290.493 237.934C290.491 238.464 290.279 238.972 289.905 239.346C289.53 239.721 289.023 239.932 288.493 239.934Z" fill="#810A8B"/>
<path d="M289.81 247.486H200.37C199.84 247.484 199.333 247.273 198.958 246.898C198.583 246.523 198.372 246.016 198.37 245.486C198.372 244.956 198.583 244.448 198.958 244.074C199.333 243.699 199.84 243.488 200.37 243.486H289.81C290.34 243.488 290.848 243.699 291.222 244.074C291.597 244.448 291.808 244.956 291.81 245.486C291.808 246.016 291.597 246.523 291.222 246.898C290.848 247.273 290.34 247.484 289.81 247.486Z" fill="#810A8B"/>
<path d="M276.203 255.683H186.763C186.233 255.681 185.725 255.47 185.351 255.095C184.976 254.721 184.765 254.213 184.763 253.683C184.765 253.153 184.976 252.646 185.351 252.271C185.725 251.896 186.233 251.685 186.763 251.683H276.203C276.732 251.685 277.24 251.896 277.615 252.271C277.99 252.646 278.201 253.153 278.203 253.683C278.201 254.213 277.99 254.721 277.615 255.095C277.24 255.47 276.732 255.681 276.203 255.683Z" fill="#810A8B"/>
<path d="M174.883 315.13H170.069C169.189 315.13 168.339 314.805 167.684 314.218C167.028 313.63 166.612 312.821 166.516 311.946L139.416 65.1311C139.356 64.5844 139.412 64.0312 139.58 63.5076C139.748 62.9839 140.025 62.5016 140.392 62.092C140.759 61.6825 141.208 61.3548 141.71 61.1305C142.212 60.9062 142.756 60.7902 143.306 60.7901H147.437C148.401 60.7903 149.331 61.1461 150.049 61.7896C150.767 62.4331 151.222 63.3188 151.327 64.2771L178.434 311.167C178.489 311.666 178.437 312.171 178.284 312.649C178.13 313.127 177.878 313.567 177.543 313.941C177.208 314.315 176.798 314.614 176.34 314.819C175.881 315.024 175.385 315.13 174.883 315.13Z" fill="#430A56"/>
<path d="M269.198 308.122H244.888C244.53 308.121 244.187 307.979 243.934 307.725C243.681 307.472 243.539 307.129 243.538 306.771C243.539 306.414 243.682 306.071 243.935 305.818C244.188 305.565 244.53 305.422 244.888 305.421H269.198C269.556 305.422 269.898 305.565 270.151 305.818C270.404 306.071 270.547 306.414 270.548 306.771C270.547 307.129 270.405 307.472 270.152 307.725C269.899 307.979 269.556 308.121 269.198 308.122Z" fill="#0F2D5C"/>
<path d="M241.457 67.3371C242.414 67.3371 243.191 66.5608 243.191 65.6031C243.191 64.6455 242.414 63.8691 241.457 63.8691C240.499 63.8691 239.723 64.6455 239.723 65.6031C239.723 66.5608 240.499 67.3371 241.457 67.3371Z" fill="#0F2D5C"/>
<path d="M248.26 67.3371C249.218 67.3371 249.994 66.5608 249.994 65.6031C249.994 64.6455 249.218 63.8691 248.26 63.8691C247.303 63.8691 246.526 64.6455 246.526 65.6031C246.526 66.5608 247.303 67.3371 248.26 67.3371Z" fill="#0F2D5C"/>
<path d="M230.652 67.3371H211.977C211.518 67.3357 211.077 67.1527 210.752 66.8278C210.428 66.5029 210.244 66.0626 210.243 65.6031C210.244 65.1436 210.428 64.7034 210.752 64.3784C211.077 64.0535 211.518 63.8704 211.977 63.8691H230.652C231.112 63.8704 231.552 64.0535 231.877 64.3784C232.202 64.7034 232.385 65.1436 232.386 65.6031C232.385 66.0626 232.202 66.5029 231.877 66.8278C231.552 67.1527 231.112 67.3357 230.652 67.3371Z" fill="#0F2D5C"/>
<path d="M249.517 223.993H102.464C98.0456 223.993 94.4639 227.575 94.4639 231.993V309.795C94.4639 314.213 98.0456 317.795 102.464 317.795H249.517C253.935 317.795 257.517 314.213 257.517 309.795V231.993C257.517 227.575 253.935 223.993 249.517 223.993Z" fill="#0F2D5C"/>
<path d="M246.329 228.128H105.65C103.441 228.128 101.65 229.919 101.65 232.128V309.661C101.65 311.87 103.441 313.661 105.65 313.661H246.329C248.539 313.661 250.329 311.87 250.329 309.661V232.128C250.329 229.919 248.539 228.128 246.329 228.128Z" fill="#7A1999"/>
<g opacity="0.4">
<g opacity="0.4">
<path opacity="0.4" d="M173.99 296.997C166.023 296.988 158.385 293.819 152.751 288.185C147.118 282.551 143.949 274.913 143.939 266.946C143.948 258.979 147.118 251.34 152.751 245.706C158.385 240.072 166.023 236.903 173.99 236.894C181.958 236.903 189.597 240.072 195.23 245.706C200.864 251.34 204.033 258.978 204.042 266.946C204.033 274.913 200.864 282.552 195.23 288.185C189.596 293.819 181.958 296.988 173.99 296.997ZM173.99 240.897C167.084 240.905 160.463 243.652 155.579 248.535C150.695 253.419 147.948 260.04 147.94 266.947C147.948 273.853 150.695 280.475 155.579 285.358C160.463 290.241 167.084 292.988 173.99 292.996C180.897 292.988 187.518 290.241 192.402 285.358C197.285 280.475 200.033 273.853 200.041 266.947C200.033 260.04 197.286 253.418 192.403 248.535C187.519 243.651 180.897 240.904 173.99 240.896V240.897Z" fill="white"/>
</g>
</g>
<path opacity="0.4" d="M189.155 263.618C189.739 263.956 190.224 264.441 190.561 265.025C190.898 265.609 191.076 266.272 191.076 266.947C191.076 267.621 190.898 268.284 190.561 268.868C190.224 269.453 189.739 269.938 189.155 270.275L179.696 275.736L170.237 281.197C169.652 281.535 168.99 281.712 168.315 281.712C167.64 281.712 166.977 281.535 166.393 281.197C165.809 280.86 165.324 280.375 164.986 279.791C164.649 279.207 164.471 278.544 164.471 277.869V256.018C164.471 255.343 164.648 254.681 164.986 254.096C165.323 253.512 165.808 253.027 166.393 252.689C166.977 252.352 167.64 252.174 168.315 252.174C168.989 252.174 169.652 252.352 170.237 252.689L179.696 258.151L189.155 263.618Z" fill="white"/>
<path opacity="0.4" d="M117.944 304.602C118.088 304.685 118.206 304.804 118.289 304.948C118.372 305.091 118.416 305.254 118.416 305.42C118.416 305.585 118.372 305.748 118.289 305.892C118.206 306.035 118.088 306.155 117.944 306.238L115.619 307.581L113.293 308.924C113.149 309.007 112.987 309.05 112.821 309.05C112.655 309.05 112.492 309.006 112.349 308.924C112.205 308.841 112.086 308.721 112.003 308.578C111.92 308.434 111.876 308.272 111.876 308.106V302.736C111.876 302.57 111.92 302.407 112.003 302.264C112.086 302.12 112.205 302.001 112.349 301.918C112.492 301.835 112.655 301.791 112.821 301.791C112.987 301.791 113.149 301.835 113.293 301.918L115.619 303.261L117.944 304.602Z" fill="white"/>
<path opacity="0.4" d="M126.373 309.051C126.205 309.051 126.044 308.984 125.925 308.865C125.806 308.746 125.74 308.585 125.739 308.417V302.417C125.74 302.249 125.806 302.088 125.925 301.969C126.044 301.85 126.205 301.783 126.373 301.783C126.541 301.783 126.702 301.85 126.821 301.969C126.94 302.088 127.007 302.249 127.007 302.417V308.417C127.007 308.585 126.94 308.746 126.821 308.865C126.702 308.984 126.541 309.051 126.373 309.051Z" fill="white"/>
<path opacity="0.4" d="M129.223 309.051C129.055 309.051 128.894 308.984 128.775 308.865C128.656 308.746 128.589 308.585 128.589 308.417V302.417C128.589 302.249 128.656 302.088 128.775 301.969C128.894 301.85 129.055 301.783 129.223 301.783C129.391 301.784 129.552 301.851 129.67 301.969C129.789 302.088 129.855 302.249 129.856 302.417V308.417C129.855 308.585 129.789 308.746 129.67 308.865C129.552 308.984 129.391 309.051 129.223 309.051Z" fill="white"/>
<path opacity="0.4" d="M235.571 304.696V304.237C235.571 303.955 235.683 303.684 235.883 303.484C236.082 303.284 236.353 303.172 236.636 303.172H237.185V301.789H235.907C235.451 301.789 235.013 301.97 234.69 302.293C234.368 302.615 234.187 303.053 234.187 303.509V304.696H235.571Z" fill="white"/>
<path opacity="0.4" d="M240.068 305.963V306.603C240.068 306.886 239.956 307.157 239.756 307.356C239.556 307.556 239.286 307.668 239.003 307.668H238.454V309.051H239.732C240.188 309.051 240.626 308.87 240.948 308.548C241.271 308.225 241.452 307.788 241.452 307.331V305.963H240.068Z" fill="white"/>
<path opacity="0.4" d="M238.453 303.168H239.002C239.285 303.168 239.555 303.28 239.755 303.48C239.955 303.68 240.067 303.951 240.067 304.233V304.692H241.45V303.505C241.45 303.049 241.269 302.611 240.946 302.289C240.624 301.966 240.186 301.785 239.73 301.785H238.452L238.453 303.168Z" fill="white"/>
<path opacity="0.4" d="M237.185 307.668H236.636C236.497 307.668 236.358 307.641 236.229 307.587C236.1 307.534 235.982 307.455 235.883 307.356C235.784 307.257 235.706 307.14 235.652 307.011C235.599 306.882 235.571 306.743 235.571 306.603V305.963H234.188V307.331C234.188 307.788 234.37 308.225 234.692 308.548C235.015 308.87 235.452 309.051 235.908 309.051H237.186L237.185 307.668Z" fill="white"/>
<path opacity="0.4" d="M217.717 304.695H144.602C144.447 304.211 144.142 303.788 143.731 303.489C143.32 303.189 142.824 303.028 142.316 303.028C141.807 303.028 141.312 303.189 140.901 303.489C140.49 303.788 140.185 304.211 140.03 304.695H137.947C137.753 304.696 137.567 304.773 137.429 304.91C137.292 305.048 137.215 305.234 137.214 305.428C137.214 305.622 137.292 305.808 137.429 305.946C137.566 306.083 137.752 306.161 137.947 306.162H140.03C140.185 306.646 140.49 307.068 140.901 307.368C141.312 307.668 141.807 307.829 142.316 307.829C142.824 307.829 143.32 307.668 143.731 307.368C144.142 307.068 144.447 306.646 144.602 306.162H217.717C217.911 306.161 218.098 306.084 218.235 305.946C218.373 305.809 218.45 305.622 218.451 305.428C218.45 305.233 218.372 305.047 218.235 304.91C218.097 304.773 217.911 304.695 217.717 304.695Z" fill="white"/>
<path opacity="0.4" d="M222.948 303.028H221.349V308.121H222.948L225.749 310.489V300.66L222.948 303.028Z" fill="white"/>
<path opacity="0.4" d="M228.725 305.43L229.196 304.959C229.274 304.88 229.318 304.774 229.318 304.664C229.318 304.553 229.274 304.447 229.196 304.369C229.118 304.291 229.011 304.247 228.901 304.247C228.79 304.247 228.684 304.291 228.606 304.369L228.135 304.841L227.663 304.369C227.585 304.291 227.479 304.247 227.368 304.247C227.258 304.247 227.152 304.291 227.074 304.369C226.996 304.447 226.952 304.553 226.952 304.664C226.952 304.774 226.996 304.88 227.074 304.959L227.545 305.43L227.074 305.902C226.996 305.98 226.952 306.086 226.952 306.197C226.952 306.307 226.996 306.413 227.074 306.492C227.152 306.57 227.258 306.614 227.368 306.614C227.479 306.614 227.585 306.57 227.663 306.492L228.135 306.02L228.606 306.492C228.684 306.57 228.79 306.614 228.901 306.614C229.011 306.614 229.118 306.57 229.196 306.492C229.274 306.413 229.318 306.307 229.318 306.197C229.318 306.086 229.274 305.98 229.196 305.902L228.725 305.43Z" fill="white"/>
<path d="M375.418 328.175C375.418 328.175 387.298 329.495 390.126 328.175C392.954 326.855 393.897 329.901 386.543 333.563C379.189 337.225 375.983 340.054 373.532 339.112C371.081 338.17 369.384 333.438 369.761 330.712C370.138 327.986 375.418 328.175 375.418 328.175Z" fill="#0F2D5C"/>
<path d="M322.053 326.667C322.053 326.667 321.487 335.719 324.315 337.604C327.143 339.489 330.573 342.035 323.939 342.035C317.305 342.035 315.539 338.924 313.464 335.718C311.389 332.512 309.233 330.029 312.183 327.861C315.133 325.693 315.264 323.649 315.83 323.649C316.396 323.649 322.053 326.667 322.053 326.667Z" fill="#0F2D5C"/>
<path d="M361.268 241.717C361.268 294.891 322.875 331.763 322.875 331.763C322.875 331.763 313.751 328.549 313.468 325.155C313.185 321.761 328.445 297.436 328.445 279.335V224.746L361.268 241.717Z" fill="#0E3A82"/>
<path d="M328.443 224.746V269.865C334.384 283.302 337.769 297.728 338.427 312.405C349.072 296.475 361.266 271.685 361.266 241.716L328.443 224.746Z" fill="#0F2D5C"/>
<path d="M328.457 215.695C327.608 260.101 366.201 332.226 368.851 333.357C371.501 334.488 379.003 330.726 378.572 327.983C368.337 262.93 366.357 219.655 366.357 219.655L328.457 215.695Z" fill="#0E3A82"/>
<path d="M370.882 159.278C371.5 159.82 372.261 160.172 373.074 160.291C373.887 160.41 374.717 160.291 375.465 159.949C378.01 158.723 387.305 152.155 387.022 150.549C386.739 148.943 382.396 148.563 382.396 148.563C382.396 148.563 368.941 159.199 370.882 159.278Z" fill="#255096"/>
<path d="M373.33 159.028C371.587 158.749 377.323 154.188 379.198 152.303C380.158 151.309 381.189 150.384 382.283 149.537C382.283 149.537 385.489 149.927 385.489 150.549C385.489 151.171 376.295 158.512 376.295 158.512C375.334 158.815 374.337 158.989 373.33 159.028Z" fill="#FFC34E"/>
<path d="M362.077 167.233C362.077 167.233 365.424 161.576 367.027 160.068C368.63 158.56 374.041 155.635 374.862 155.617C376.262 155.586 370.044 159.785 370.044 159.785C370.044 159.785 370.892 165.253 370.138 167.233C369.384 169.213 361.464 171.853 361.464 171.853L362.077 167.233Z" fill="#F09959"/>
<path d="M355.854 173.171C355.854 173.171 361.322 164.971 362.548 165.534C363.774 166.097 367.073 173.171 367.073 173.171C367.073 173.171 357.457 183.165 357.457 181.279C357.457 179.393 355.854 173.171 355.854 173.171Z" fill="#91D5FF"/>
<path d="M340.731 129.24C340.731 129.24 335.074 149.228 331.303 157.525C327.532 165.822 325.646 181.285 326.403 208.439C327.16 235.593 321.878 234.839 329.798 238.233C337.718 241.627 366.004 235.97 369.775 227.296C373.546 218.622 367.25 183.307 357.895 170.348C348.66 157.554 344.507 153 344.507 149.982C344.507 146.964 348.157 134.142 348.157 134.142L340.731 129.24Z" fill="#F09959"/>
<path d="M369.771 227.297C373.542 218.623 367.246 183.308 357.891 170.349C353.591 164.391 350.391 160.22 348.202 157.159C343.754 154.409 339 152.191 334.035 150.549C333.086 153.223 332.147 155.668 331.302 157.526C327.531 165.826 325.645 181.286 326.402 208.44C327.159 235.594 321.877 234.84 329.797 238.234C337.717 241.628 366 235.972 369.771 227.297Z" fill="#B3E2FF"/>
<path d="M330.673 146.969C330.767 145.417 350.913 153.38 351.039 154.889C351.514 158.41 352.519 161.838 354.022 165.057C355.69 168.089 325.975 185.024 327.067 176.779C328.159 168.534 330.422 151.114 330.673 146.969Z" fill="#B3E2FF"/>
<path d="M344.52 150.319C344.51 150.205 344.503 150.092 344.503 149.982C344.503 146.965 348.153 134.142 348.153 134.142L340.731 129.242C340.731 129.242 339.418 133.883 337.631 139.619C339.94 146.499 342.101 148.851 344.52 150.319Z" fill="#E38540"/>
<path d="M361.542 139.027C359.974 146.135 355.064 151.19 349.39 149.8C346.291 148.802 343.687 146.663 342.107 143.816C340.527 140.969 340.089 137.627 340.882 134.469C342.591 127.393 348.347 122.62 354.051 123.879C359.755 125.138 363.11 131.919 361.542 139.027Z" fill="#F09959"/>
<path d="M367.983 185.299C373.132 176.406 373.708 168.099 377.357 165.506C382.49 161.857 386.705 153.696 384.847 153.374C382.989 153.052 375.464 159.946 375.464 159.946C375.464 159.946 377.422 157.266 376.954 157.046C376.486 156.826 372.696 159.574 372.109 162.824C371.522 166.074 364.24 181.012 358.132 185.796C352.024 190.58 362.834 194.193 367.983 185.299Z" fill="#F09959"/>
<path d="M334.625 162.892C325.5 165.164 329.674 192.719 337.367 209.062C345.06 225.405 359.516 211.286 364.922 207.282C366.595 206.078 368.048 204.593 369.216 202.895C367.48 193.143 364.505 182.681 360.832 175.319C352.22 185.428 348.125 159.531 334.625 162.892Z" fill="#91D5FF"/>
<path d="M337.365 160.913C325.891 162.063 332.173 190.707 340.565 202.273C348.957 213.839 360.899 202.65 364.665 195.988C368.431 189.326 376.074 177.996 376.074 170.625C376.074 169.242 373.245 168.959 369.851 169.21C366.651 169.447 352.216 189.324 352.216 189.324C352.216 189.324 347.398 159.908 337.365 160.913Z" fill="#B3E2FF"/>
<path d="M365.046 124.206C372.062 127.16 367.859 136.506 364.16 136.854C360.461 137.202 356.183 130.383 353.986 130.154C351.789 129.925 354.43 133.969 352.474 134.894C351.423 135.32 350.483 135.983 349.729 136.831C348.974 137.679 348.425 138.689 348.124 139.783C347.554 142.211 345.993 147.495 348.545 147.726C351.097 147.957 353.872 145.183 355.606 145.067C356.7 145.007 357.796 145.138 358.846 145.453C358.846 145.453 354.445 151.541 351.208 151.888C347.971 152.235 344.447 147.508 341.934 143.513C339.421 139.518 340.488 136.856 340.488 136.856C340.488 136.856 337.917 139.75 336.299 139.518C334.681 139.286 338.727 136.975 338.842 130.154C338.957 123.333 341.963 119.754 345.663 119.754C349.363 119.754 348.9 117.871 354.55 118.02C359.641 118.144 363.399 123.513 365.046 124.206Z" fill="#0F2D5C"/>
<path d="M349.619 138.142C349.783 139.903 348.879 141.427 347.599 141.542C346.319 141.657 345.151 140.329 344.987 138.568C344.823 136.807 345.727 135.283 347.007 135.168C348.287 135.053 349.456 136.381 349.619 138.142Z" fill="#F09959"/>
<path d="M30.2722 309.253C24.2142 316.003 12.877 314.996 14.695 317.907C16.513 320.818 24.6651 320.072 29.2521 319.828C36.8801 319.422 34.7721 315.051 35.3781 313.493C35.9841 311.935 30.2722 309.253 30.2722 309.253Z" fill="#0F2D5C"/>
<path d="M81.6828 213.797C81.6828 213.797 43.833 242.873 44.353 248.844C44.873 254.815 72.253 304.632 74.529 304.644C76.805 304.656 81.967 302.097 82.739 300.911C83.511 299.725 81.217 265.23 78.362 261.711C75.507 258.192 100.244 222.883 100.244 222.883L81.6828 213.797Z" fill="#0F2D5C"/>
<path d="M114.578 207.567C114.578 207.567 123.223 227.297 118.186 232.749C113.149 238.201 95.4731 242.235 89.5251 251.181C76.4491 270.85 76.2851 284.793 58.3721 299.864C40.4591 314.935 35.3052 315.304 35.3052 315.304L29.2959 310.035C29.2959 310.035 49.2862 282.853 57.0742 261.046C64.8622 239.239 85.374 213.537 85.374 213.537L114.578 207.567Z" fill="#0E3A82"/>
<path d="M79.366 161.131C78.8192 161.611 78.1452 161.922 77.4253 162.028C76.7054 162.133 75.9705 162.028 75.3091 161.725C73.0551 160.64 64.8249 154.825 65.0759 153.405C65.3269 151.985 69.176 151.646 69.176 151.646C69.176 151.646 81.086 161.064 79.366 161.131Z" fill="#255096"/>
<path d="M77.1987 160.912C78.7417 160.665 73.6637 156.627 72.0037 154.957C71.1526 154.076 70.2396 153.258 69.2717 152.508C69.2717 152.508 66.4326 152.854 66.4326 153.408C66.4326 153.962 74.5728 160.459 74.5728 160.459C75.424 160.726 76.3071 160.878 77.1987 160.912Z" fill="#FFC34E"/>
<path d="M87.1628 168.178C87.1628 168.178 84.1988 163.169 82.7798 161.833C81.3608 160.497 76.5688 157.908 75.8418 157.892C74.5988 157.865 80.1086 161.582 80.1086 161.582C80.1086 161.582 79.3576 166.424 80.0256 168.182C80.6936 169.94 87.7058 172.273 87.7058 172.273L87.1628 168.178Z" fill="#F09959"/>
<path d="M92.6733 173.434C92.6733 173.434 87.8313 166.171 86.7463 166.672C85.6613 167.173 82.7393 173.434 82.7393 173.434C82.7393 173.434 91.2544 182.283 91.2544 180.613C91.5635 178.19 92.0376 175.792 92.6733 173.434Z" fill="#FB8627"/>
<path d="M106.062 134.538C106.062 134.538 111.071 152.238 114.41 159.582C117.749 166.926 119.419 180.619 118.751 204.662C118.083 228.705 122.758 228.037 115.746 231.042C108.734 234.047 83.6893 229.042 80.3463 221.358C77.0033 213.674 82.5823 182.409 90.8653 170.935C99.0433 159.607 102.719 155.574 102.719 152.903C102.719 150.232 99.4874 138.878 99.4874 138.878L106.062 134.538Z" fill="#F09959"/>
<path d="M80.3496 221.358C77.0106 213.678 82.5857 182.41 90.8687 170.936C94.6767 165.661 97.5085 161.968 99.4475 159.257C103.385 156.822 107.595 154.857 111.99 153.404C112.83 155.772 113.662 157.937 114.41 159.582C117.749 166.928 119.418 180.619 118.75 204.662C118.083 228.705 122.758 228.037 115.746 231.042C108.734 234.047 83.6886 229.039 80.3496 221.358Z" fill="url(#paint1_linear_1906_430)"/>
<path d="M114.967 150.232C114.884 148.858 97.0465 155.909 96.9345 157.245C96.5137 160.361 95.6231 163.395 94.2934 166.245C92.8154 168.93 119.126 183.924 118.159 176.624C117.192 169.324 115.189 153.905 114.967 150.232Z" fill="url(#paint2_linear_1906_430)"/>
<path d="M102.708 153.202C102.719 153.102 102.724 153.002 102.724 152.902C102.724 150.23 99.4922 138.877 99.4922 138.877L106.063 134.536C106.063 134.536 107.226 138.645 108.804 143.724C106.763 149.823 104.853 151.902 102.708 153.202Z" fill="#E38540"/>
<path d="M89.5289 143.174C90.7429 148.674 94.5429 152.587 98.9339 151.511C101.333 150.739 103.348 149.083 104.571 146.879C105.793 144.675 106.132 142.089 105.518 139.645C104.195 134.169 99.741 130.474 95.326 131.445C90.911 132.416 88.3129 137.673 89.5289 143.174Z" fill="#F09959"/>
<path d="M81.9333 184.173C77.3733 176.299 76.8645 168.944 73.6335 166.648C69.0895 163.417 65.3564 156.191 67.0024 155.907C68.6484 155.623 75.3093 161.726 75.3093 161.726C75.3093 161.726 73.5755 159.353 73.9895 159.155C74.4035 158.957 77.7595 161.393 78.2805 164.271C78.8015 167.149 85.2475 180.371 90.6555 184.61C96.0635 188.849 86.4933 192.047 81.9333 184.173Z" fill="#F09959"/>
<path d="M111.466 164.333C119.546 166.344 115.85 190.743 109.039 205.213C102.228 219.683 89.4279 207.182 84.6389 203.638C83.1583 202.571 81.8727 201.257 80.8389 199.753C82.3749 191.119 85.009 181.853 88.261 175.337C95.891 184.286 99.5158 161.357 111.466 164.333Z" fill="url(#paint3_linear_1906_430)"/>
<path d="M109.042 162.58C119.202 163.599 113.642 188.96 106.21 199.201C98.7777 209.442 88.2097 199.535 84.8667 193.636C81.5237 187.737 74.7666 177.706 74.7666 171.179C74.7666 169.955 77.2666 169.704 80.2766 169.927C83.1066 170.137 95.8916 187.736 95.8916 187.736C95.8916 187.736 100.159 161.692 109.042 162.58Z" fill="url(#paint4_linear_1906_430)"/>
<path d="M74.5291 298.433C74.9871 309.333 62.529 318.163 67.718 318.942C72.907 319.721 76.9982 316.211 79.3682 313.552C81.7382 310.893 84.3122 310.107 83.6182 307.095C82.9242 304.083 82.8791 297.731 82.1541 295.654C81.4291 293.577 74.5291 298.433 74.5291 298.433Z" fill="#0F2D5C"/>
<path d="M93.5731 126.097C82.9731 126.822 84.3221 143.257 84.3221 143.257C84.3221 143.257 93.0681 143.51 95.6761 142.757C97.5669 142.106 99.3432 141.161 100.94 139.957C100.94 139.957 102.54 146.182 106.928 146.529L111.311 146.876C111.311 146.876 114.202 135.058 111.911 129.729C107.176 118.679 97.7091 124.21 93.5731 126.097Z" fill="#0F2D5C"/>
<path d="M105.142 142.007C104.514 143.622 103.029 144.552 101.824 144.084C100.619 143.616 100.152 141.927 100.78 140.311C101.408 138.695 102.893 137.765 104.098 138.234C105.303 138.703 105.77 140.395 105.142 142.007Z" fill="#F09959"/>
<path d="M110.38 138.44C110.38 138.44 112.924 147.222 116.455 147.671C119.986 148.12 142.555 149.428 136.789 173.114C132.778 189.582 125.664 192.332 132.866 198.384C138.866 203.426 145.954 197.115 145.954 197.115C145.954 197.115 149.423 215.934 135.405 215.693C121.387 215.452 114.693 200.714 120.405 187.193C126.117 173.672 114.805 170.212 114.337 162.616C113.986 158.624 113.986 154.609 114.337 150.616L110.38 145.9V138.44Z" fill="#0F2D5C"/>
<path d="M321.98 89.285C321.98 92.0799 320.87 94.7603 318.894 96.7366C316.918 98.7128 314.237 99.8231 311.442 99.8231C308.648 99.8231 305.967 98.7128 303.991 96.7366C302.014 94.7603 300.904 92.0799 300.904 89.285C300.904 86.4902 302.014 83.8098 303.991 81.8336C305.967 79.8573 308.648 78.7471 311.442 78.7471C314.237 78.7471 316.918 79.8573 318.894 81.8336C320.87 83.8098 321.98 86.4902 321.98 89.285Z" fill="#F37168"/>
<path d="M311.341 85.5812C311.341 85.5812 307.661 82.3362 305.057 85.4542C301.482 89.7342 311.341 95.1782 311.341 95.1782C311.341 95.1782 321.377 89.5602 317.867 85.2302C315.211 81.9552 311.341 85.5812 311.341 85.5812Z" fill="white"/>
<path d="M294.318 69.7581C298.936 69.7581 302.679 66.0148 302.679 61.3971C302.679 56.7795 298.936 53.0361 294.318 53.0361C289.7 53.0361 285.957 56.7795 285.957 61.3971C285.957 66.0148 289.7 69.7581 294.318 69.7581Z" fill="#F37168"/>
<path d="M294.238 58.458C294.238 58.458 291.318 55.883 289.251 58.358C286.415 61.758 294.238 66.074 294.238 66.074C294.238 66.074 302.202 61.616 299.416 58.18C297.309 55.582 294.238 58.458 294.238 58.458Z" fill="white"/>
<path d="M313.391 40.8568C318.135 40.8568 321.981 37.0109 321.981 32.2668C321.981 27.5226 318.135 23.6768 313.391 23.6768C308.647 23.6768 304.801 27.5226 304.801 32.2668C304.801 37.0109 308.647 40.8568 313.391 40.8568Z" fill="#F37168"/>
<path d="M313.307 29.2467C313.307 29.2467 310.307 26.6018 308.184 29.1468C305.269 32.6358 313.307 37.0738 313.307 37.0738C313.307 37.0738 321.488 32.4938 318.626 28.9648C316.462 26.2918 313.307 29.2467 313.307 29.2467Z" fill="white"/>
<path d="M302.161 5.68799C302.161 7.19654 301.562 8.64332 300.495 9.71002C299.428 10.7767 297.982 11.376 296.473 11.376C294.965 11.376 293.518 10.7767 292.451 9.71002C291.384 8.64332 290.785 7.19654 290.785 5.68799C290.785 4.17944 291.384 2.73269 292.451 1.66599C293.518 0.599278 294.965 0 296.473 0C297.982 0 299.428 0.599278 300.495 1.66599C301.562 2.73269 302.161 4.17944 302.161 5.68799Z" fill="#F37168"/>
<path d="M296.418 3.68916C296.418 3.68916 294.432 1.93716 293.025 3.62016C291.095 5.93016 296.418 8.86919 296.418 8.86919C296.418 8.86919 301.835 5.83619 299.94 3.49919C298.507 1.73219 296.418 3.68916 296.418 3.68916Z" fill="white"/>
<path d="M115.372 113.123C119.487 109.008 119.487 102.336 115.372 98.2203C111.257 94.1049 104.584 94.1049 100.469 98.2203C96.3537 102.336 96.3537 109.008 100.469 113.123C104.584 117.239 111.257 117.239 115.372 113.123Z" fill="#F37168"/>
<path d="M107.816 101.968C107.816 101.968 104.137 98.7228 101.532 101.841C97.9562 106.121 107.816 111.565 107.816 111.565C107.816 111.565 117.853 105.946 114.342 101.617C111.687 98.3428 107.816 101.968 107.816 101.968Z" fill="white"/>
<path d="M115.781 80.0132C119.893 78.3222 121.856 73.6182 120.165 69.5064C118.474 65.3947 113.77 63.4322 109.658 65.1232C105.546 66.8142 103.584 71.5182 105.275 75.63C106.966 79.7417 111.67 81.7042 115.781 80.0132Z" fill="#F37168"/>
<path d="M112.642 69.7388C112.642 69.7388 109.831 67.2597 107.842 69.6387C105.111 72.9087 112.642 77.0677 112.642 77.0677C112.642 77.0677 120.31 72.7758 117.628 69.4678C115.599 66.9688 112.642 69.7388 112.642 69.7388Z" fill="white"/>
<path d="M89.3146 54.909C93.0702 54.909 96.1146 51.8645 96.1146 48.109C96.1146 44.3535 93.0702 41.309 89.3146 41.309C85.5591 41.309 82.5146 44.3535 82.5146 48.109C82.5146 51.8645 85.5591 54.909 89.3146 54.909Z" fill="#F37168"/>
<path d="M89.2489 45.7192C89.2489 45.7192 86.8737 43.6252 85.1937 45.6372C82.8857 48.3992 89.2489 51.9122 89.2489 51.9122C89.2489 51.9122 95.7258 48.2862 93.4598 45.4932C91.7458 43.3802 89.2489 45.7192 89.2489 45.7192Z" fill="white"/>
<path d="M284.691 183.308H181.061C179.815 183.308 178.612 182.849 177.681 182.019C176.751 181.19 176.158 180.046 176.016 178.808L164.703 79.5158C164.622 78.805 164.692 78.085 164.908 77.4032C165.125 76.7214 165.483 76.093 165.96 75.5593C166.436 75.0255 167.02 74.5985 167.673 74.3062C168.326 74.0138 169.033 73.8627 169.748 73.8628H273.377C274.623 73.8625 275.827 74.3211 276.757 75.1509C277.688 75.9808 278.281 77.124 278.423 78.3628L289.736 177.655C289.817 178.366 289.747 179.085 289.53 179.767C289.313 180.449 288.955 181.077 288.479 181.611C288.003 182.145 287.419 182.572 286.766 182.864C286.113 183.157 285.406 183.308 284.691 183.308Z" fill="#430A56"/>
<path d="M238.023 95.3867C242.398 104.136 238.777 114.211 230.171 117.771C221.509 121.354 212.038 119.319 207.663 110.571C203.288 101.823 206.537 91.3297 214.921 87.1377C223.305 82.9457 233.648 86.6377 238.023 95.3867Z" fill="#FFC34E"/>
<path d="M214.441 118.86C213.466 118.86 211.553 118.516 209.125 116.36C206.988 114.324 205.575 111.646 205.098 108.733C204.336 104.759 204.833 100.192 206.574 95.1581C206.595 95.0977 206.627 95.042 206.67 94.9942C206.712 94.9465 206.764 94.9075 206.821 94.8797C206.879 94.8518 206.942 94.8356 207.005 94.8319C207.069 94.8282 207.133 94.8371 207.194 94.8581C207.254 94.8791 207.31 94.9118 207.357 94.9543C207.405 94.9968 207.444 95.0484 207.472 95.106C207.5 95.1636 207.516 95.226 207.52 95.2899C207.524 95.3537 207.514 95.4177 207.493 95.4781C205.808 100.348 205.325 104.747 206.055 108.551C206.491 111.253 207.795 113.738 209.771 115.632C212.82 118.337 214.863 117.85 214.883 117.845C215.008 117.811 215.141 117.829 215.253 117.893C215.366 117.958 215.448 118.064 215.482 118.189C215.5 118.25 215.506 118.315 215.498 118.378C215.491 118.441 215.472 118.503 215.441 118.559C215.409 118.614 215.368 118.663 215.317 118.703C215.267 118.743 215.21 118.772 215.149 118.789C214.917 118.843 214.679 118.867 214.441 118.86Z" fill="#FFC34E"/>
<path d="M259.312 130.984C259.312 130.984 257.112 130.21 255.944 125.415C255.344 122.947 256.944 118.679 258.278 117.345C257.411 114.877 254.077 105.667 255.543 105.673C257.025 105.679 260.344 115.873 260.344 115.873C260.344 115.873 262.144 106.402 263.279 106.535C264.414 106.668 263.279 116.406 263.279 116.406C263.279 116.406 267.31 117.085 268.548 120.741C269.786 124.397 265.921 130.128 265.921 130.928C265.921 131.728 265.479 134.281 265.479 134.281L259.144 133.281L259.312 130.984Z" fill="#E38540"/>
<path d="M264.283 116.091C265.353 116.3 266.315 116.879 267.003 117.725C267.485 117.912 267.895 118.247 268.173 118.683C268.451 119.118 268.584 119.631 268.551 120.147C268.497 121.035 266.277 124.047 264.78 125.232C262.948 126.683 262.053 125.282 262.48 124.815C262.907 124.348 261.613 124.348 261.08 123.748C260.547 123.148 262.747 118.904 263.08 117.725C263.413 116.546 263.678 116.014 264.283 116.091Z" fill="#F09959"/>
<path d="M260.997 122.88C264.081 123.413 266.482 123.28 266.349 122.413C266.216 121.546 263.337 120.193 262.549 119.699C261.761 119.205 260.997 122.88 260.997 122.88Z" fill="#E38540"/>
<path d="M260.947 125.482C262.647 128.69 260.614 131.351 259.313 130.982C258.012 130.613 256.088 127.682 255.813 124.282C255.538 120.882 255.744 120.815 257.013 119.082C258.282 117.349 261.881 119.015 262.881 119.982C263.881 120.949 266.016 121.816 265.081 122.416C264.146 123.016 261.481 122.416 260.51 122.016C259.539 121.616 259.61 122.616 259.145 123.083C258.68 123.55 259.747 123.213 260.947 125.482Z" fill="#F09959"/>
<path d="M227.818 129.433C238.869 135.486 252.006 165.042 252.006 165.042C252.006 165.042 255.429 138.616 258.478 132.685C259.26 131.164 265.478 132.211 266.478 133.748C267.478 135.285 269.678 173.319 264.678 179.914C259.678 186.509 247.47 184.814 247.47 184.814L231.453 170.905L227.818 129.433Z" fill="#A8CEFF"/>
<path d="M256.948 136.875C254.284 145.303 250.877 163.499 251.748 168.434C252.619 173.369 254.548 175.504 254.548 175.504C254.548 175.504 253.081 163.299 254.081 156.495C255.081 149.691 256.948 136.875 256.948 136.875Z" fill="#93BBF0"/>
<path d="M245.637 183.222C251.265 182.637 256.037 182.108 254.876 182.108C252.276 182.108 240.202 175.145 241.203 168.368C242.204 161.591 242.337 148.159 239.003 142.222L237.88 139.746C234.28 134.822 231.669 131.546 227.818 129.433L231.45 170.902L245.637 183.222Z" fill="#93BBF0"/>
<path d="M209.51 126.364C209.51 126.364 193.67 135.215 189.978 137.097C186.286 138.979 200.322 194.226 203.444 196.597C206.566 198.968 234.044 197.004 237.178 194.021C240.312 191.038 234.778 181.883 237.485 163.554C240.192 145.225 229.226 129.399 227.817 129.434C226.408 129.469 217.217 126.367 217.217 126.367L209.51 126.364Z" fill="#A8CEFF"/>
<path d="M203.445 196.596C206.567 198.964 226.234 199.017 234.605 196.412C235.551 196.118 239.84 194.412 239.94 192.802C238.93 192.612 234.919 193.094 233.291 192.72C227.629 191.42 224.511 184.405 224.511 184.405C224.511 184.405 221.393 183.283 214.418 180.329C207.443 177.375 210.318 168.429 210.151 164.492C209.984 160.555 203.258 147.671 190.622 137.906L189.463 138.425C188.561 147.405 200.557 194.406 203.445 196.596Z" fill="#93BBF0"/>
<path d="M188.734 138.137C181.104 162.537 170.286 190.217 172.009 190.217C173.732 190.217 217.546 191.988 219.27 190.517C220.994 189.046 220.501 183.38 220.256 182.642C220.011 181.904 195.346 177.527 195.346 177.527C195.346 177.527 198.594 171.198 199.825 158.827C201.056 146.456 190.182 133.51 188.734 138.137Z" fill="#A8CEFF"/>
<path d="M215.313 105.167L209.166 127.629C209.166 127.629 219.553 143.841 222.408 142.401C225.263 140.961 220.808 129.224 220.808 127.629C220.808 126.034 225.26 109.578 225.26 109.578L215.313 105.167Z" fill="#F09959"/>
<path d="M221.025 128.773C220.918 128.399 220.846 128.016 220.812 127.628C220.812 126.033 225.264 109.577 225.264 109.577L215.313 105.166L213.279 112.599C214.561 118.522 217.214 124.062 221.025 128.773Z" fill="#E38540"/>
<path d="M238.311 104.795C239.482 111.308 238.711 119.959 232.927 122.158C227.143 124.357 220.177 120.15 217.366 112.758C214.555 105.366 216.966 97.5937 222.751 95.3947C228.536 93.1957 236.912 97.0137 238.311 104.795Z" fill="#F09959"/>
<path d="M226.111 114.652C226.111 114.652 231.052 116.552 233.77 116.514C234.821 116.576 235.875 116.501 236.907 116.292C236.907 116.292 235.03 120.055 232.638 119.82C231.18 119.644 229.798 119.068 228.646 118.156C227.494 117.244 226.617 116.031 226.111 114.652Z" fill="white"/>
<path d="M218.739 108.465C219.55 110.742 218.846 113.072 217.167 113.67C215.488 114.268 213.467 112.907 212.659 110.63C211.851 108.353 212.552 106.023 214.232 105.425C215.912 104.827 217.928 106.183 218.739 108.465Z" fill="#F09959"/>
<path d="M238.38 96.6118C236.411 111.896 217.842 109.927 217.842 109.927C217.842 109.927 214.011 104.892 212.288 107.533C210.565 110.174 214.68 92.0328 225.335 91.4658C228.836 91.2778 238.38 96.6118 238.38 96.6118Z" fill="#FFC34E"/>
<path d="M209.449 99.5859C215.004 99.5859 219.507 95.3612 219.507 90.1499C219.507 84.9385 215.004 80.7139 209.449 80.7139C203.894 80.7139 199.391 84.9385 199.391 90.1499C199.391 95.3612 203.894 99.5859 209.449 99.5859Z" fill="#FFC34E"/>
<path d="M153.875 88.0938C169.616 88.0938 182.376 75.3335 182.376 59.5928C182.376 43.8521 169.616 31.0918 153.875 31.0918C138.134 31.0918 125.374 43.8521 125.374 59.5928C125.374 75.3335 138.134 88.0938 153.875 88.0938Z" fill="#0E3A82"/>
<path d="M153.238 40.8198C156.938 40.3098 160.119 49.4857 159.864 52.4197C159.609 55.3537 166.746 52.0377 170.188 54.5867C173.63 57.1357 172.61 70.3867 170.188 71.2817C167.766 72.1767 158 72.3018 154.854 70.6448C153.267 69.6901 151.435 69.2218 149.584 69.2977L147.964 55.4327C149.49 54.8784 150.892 54.0289 152.089 52.9327C154.257 51.0147 153.238 40.8198 153.238 40.8198ZM136.798 73.3198C137.689 74.0848 147.758 76.5058 148.268 71.4078C148.778 66.3098 146.229 55.4778 146.229 55.4778C146.229 55.4778 139.229 55.1238 136.799 56.3638C135.864 56.8398 135.906 72.5527 136.797 73.3177L136.798 73.3198Z" fill="white"/>
<path d="M282.502 292.741C290.74 292.741 297.418 286.063 297.418 277.825C297.418 269.587 290.74 262.909 282.502 262.909C274.264 262.909 267.586 269.587 267.586 277.825C267.586 286.063 274.264 292.741 282.502 292.741Z" fill="#C1C765"/>
<path d="M275.387 285.73C273.187 272.551 283.272 272.23 283.272 272.23V268.325L291.266 276.319L283.566 284.019V279.55C283.566 279.55 279.694 279.713 278.23 281.828C276.766 283.943 275.387 285.73 275.387 285.73Z" fill="white"/>
<path d="M241.268 237.3C241.53 236.187 240.841 235.072 239.729 234.81C238.616 234.547 237.501 235.236 237.238 236.349C236.976 237.461 237.665 238.576 238.777 238.839C239.89 239.102 241.005 238.413 241.268 237.3Z" fill="white"/>
<path d="M241.268 246.617C241.53 245.504 240.841 244.389 239.729 244.127C238.616 243.864 237.501 244.553 237.238 245.666C236.976 246.778 237.665 247.893 238.777 248.156C239.89 248.418 241.005 247.729 241.268 246.617Z" fill="white"/>
<path d="M233.56 241.64C233.56 241.912 233.507 242.181 233.403 242.433C233.299 242.684 233.146 242.912 232.954 243.105C232.762 243.297 232.534 243.449 232.282 243.554C232.031 243.658 231.762 243.711 231.49 243.711C230.941 243.711 230.414 243.493 230.026 243.105C229.637 242.716 229.419 242.189 229.419 241.64C229.419 241.091 229.637 240.564 230.026 240.176C230.414 239.787 230.941 239.569 231.49 239.569C231.762 239.569 232.031 239.623 232.282 239.727C232.534 239.831 232.762 239.984 232.954 240.176C233.146 240.368 233.299 240.596 233.403 240.848C233.507 241.099 233.56 241.368 233.56 241.64Z" fill="white"/>
<path d="M239.252 246.942C239.111 246.942 238.973 246.905 238.852 246.834L231.087 242.334C230.967 242.265 230.867 242.166 230.797 242.047C230.727 241.928 230.689 241.792 230.687 241.654C230.685 241.516 230.719 241.38 230.785 241.258C230.851 241.137 230.948 241.035 231.066 240.962L238.83 236.145C239.01 236.034 239.227 235.999 239.433 236.047C239.639 236.096 239.818 236.224 239.93 236.404C240.041 236.584 240.076 236.802 240.028 237.008C239.979 237.214 239.851 237.393 239.671 237.504L233.041 241.618L239.651 245.449C239.742 245.502 239.821 245.572 239.885 245.655C239.949 245.739 239.996 245.834 240.023 245.936C240.05 246.037 240.057 246.143 240.043 246.248C240.029 246.352 239.995 246.452 239.942 246.543C239.872 246.664 239.771 246.765 239.65 246.835C239.529 246.905 239.392 246.942 239.252 246.942Z" fill="white"/>
<defs>
<linearGradient id="paint0_linear_1906_430" x1="340.951" y1="62.0788" x2="30.7105" y2="209.239" gradientUnits="userSpaceOnUse">
<stop stop-color="#DB5FDD"/>
<stop offset="1" stop-color="#4C13BF"/>
</linearGradient>
<linearGradient id="paint1_linear_1906_430" x1="2565.76" y1="140.448" x2="2442.84" y2="178.847" gradientUnits="userSpaceOnUse">
<stop stop-color="#FFC34E"/>
<stop offset="1" stop-color="#FB8627"/>
</linearGradient>
<linearGradient id="paint2_linear_1906_430" x1="2546.58" y1="124.272" x2="2431.16" y2="220.579" gradientUnits="userSpaceOnUse">
<stop stop-color="#FFC34E"/>
<stop offset="1" stop-color="#FB8627"/>
</linearGradient>
<linearGradient id="paint3_linear_1906_430" x1="2569.48" y1="103.094" x2="2474.01" y2="195.148" gradientUnits="userSpaceOnUse">
<stop stop-color="#FFC34E"/>
<stop offset="1" stop-color="#FB8627"/>
</linearGradient>
<linearGradient id="paint4_linear_1906_430" x1="2563.58" y1="131.831" x2="2454.79" y2="253.003" gradientUnits="userSpaceOnUse">
<stop stop-color="#FFC34E"/>
<stop offset="1" stop-color="#FB8627"/>
</linearGradient>
</defs>
</svg>
